<svg width="135" height="115" viewBox="0 0 135 115" fill="none" xmlns="http://www.w3.org/2000/svg">
<rect x="69.5" y="68.5" width="65" height="37" fill="#002B55" stroke="#C4C4C4"/>
<rect width="40.5057" height="6.84413" transform="matrix(-0.982013 0.188815 0.191349 0.981522 71.6904 66.4909)" fill="#80C565"/>
<rect width="41.7352" height="59.0227" transform="matrix(-1 0 0 1 41.7353 6.02274)" fill="#F3F3F3"/>
<rect width="8.85293" height="1.20455" transform="matrix(-1 0 0 1 37.9412 20.4773)" fill="#002B55"/>
<rect width="8.85293" height="1.20455" transform="matrix(-1 0 0 1 18.9706 20.4773)" fill="#002B55"/>
<rect width="46.7941" height="9.63636" transform="matrix(-1 0 0 1 46.7941 0)" fill="#002B55"/>
<rect width="10.1176" height="14.4545" transform="matrix(-1 0 0 1 36.6765 24.0909)" fill="white"/>
<rect width="7.58823" height="9.63636" transform="matrix(-1 0 0 1 34.1471 24.0909)" fill="#002B55"/>
<rect width="2.52941" height="2.40909" transform="matrix(-1 0 0 1 30.353 25.2954)" fill="white"/>
<rect width="10.1176" height="14.4545" transform="matrix(-1 0 0 1 20.2353 24.0909)" fill="white"/>
<rect width="7.58823" height="9.63636" transform="matrix(-1 0 0 1 17.7059 24.0909)" fill="#002B55"/>
<rect width="2.52941" height="2.40909" transform="matrix(-1 0 0 1 13.9117 25.2954)" fill="white"/>
<path d="M32.3502 47.7784L23.3971 54.7745L14.444 47.7784H32.3502Z" fill="white" stroke="#002B55"/>
<rect width="27.8235" height="37.3409" transform="matrix(-1 0 0 1 35.4118 68.6591)" fill="#80C565"/>
<path d="M24.0294 72.2727L18.5531 67.7557H29.5058L24.0294 72.2727Z" fill="white"/>
<rect width="26.6029" height="6.93119" transform="matrix(-0.812223 -0.583347 -0.620739 0.784017 51.8529 98.6324)" fill="#80C565"/>
<rect x="10.3235" y="45.25" width="25.2941" height="1.25" fill="#002B55"/>
<rect x="44" y="34" width="54" height="35" fill="#002B55"/>
<rect x="53" y="23" width="25" height="8" fill="#002B55"/>
<path d="M110 45L129 39V67L110 61.5V45Z" fill="#002B55"/>
<rect x="98" y="45" width="25" height="16" fill="#002B55"/>
<path d="M68.4762 107H118L108.714 115H53L68.4762 107Z" fill="#C4C4C4"/>
<rect x="56.5" y="45.5" width="24" height="14" stroke="white"/>
<path d="M72.924 76.036C72.79 76.036 72.67 76.005 72.564 75.943C72.46 75.881 72.377 75.792 72.315 75.676C72.253 75.558 72.222 75.418 72.222 75.256C72.222 75.094 72.253 74.955 72.315 74.839C72.377 74.721 72.461 74.631 72.567 74.569C72.675 74.507 72.794 74.476 72.924 74.476C73.108 74.476 73.255 74.522 73.365 74.614C73.475 74.706 73.545 74.829 73.575 74.983H73.317C73.293 74.901 73.247 74.836 73.179 74.788C73.111 74.738 73.025 74.713 72.921 74.713C72.845 74.713 72.773 74.733 72.705 74.773C72.637 74.813 72.582 74.873 72.54 74.953C72.498 75.033 72.477 75.134 72.477 75.256C72.477 75.378 72.498 75.48 72.54 75.562C72.582 75.642 72.637 75.702 72.705 75.742C72.773 75.782 72.845 75.802 72.921 75.802C73.031 75.802 73.118 75.777 73.182 75.727C73.248 75.677 73.293 75.611 73.317 75.529H73.575C73.537 75.687 73.462 75.811 73.35 75.901C73.24 75.991 73.098 76.036 72.924 76.036ZM74.6988 76.036C74.5588 76.036 74.4348 76.004 74.3268 75.94C74.2188 75.876 74.1338 75.786 74.0718 75.67C74.0098 75.552 73.9788 75.414 73.9788 75.256C73.9788 75.098 74.0098 74.961 74.0718 74.845C74.1338 74.727 74.2188 74.636 74.3268 74.572C74.4348 74.508 74.5588 74.476 74.6988 74.476C74.8388 74.476 74.9628 74.508 75.0708 74.572C75.1788 74.636 75.2638 74.727 75.3258 74.845C75.3878 74.961 75.4188 75.098 75.4188 75.256C75.4188 75.414 75.3878 75.552 75.3258 75.67C75.2638 75.786 75.1788 75.876 75.0708 75.94C74.9628 76.004 74.8388 76.036 74.6988 76.036ZM74.6988 75.796C74.7848 75.796 74.8628 75.777 74.9328 75.739C75.0028 75.701 75.0578 75.642 75.0978 75.562C75.1398 75.482 75.1608 75.38 75.1608 75.256C75.1608 75.132 75.1398 75.03 75.0978 74.95C75.0578 74.87 75.0028 74.811 74.9328 74.773C74.8628 74.735 74.7848 74.716 74.6988 74.716C74.6148 74.716 74.5378 74.735 74.4678 74.773C74.3978 74.811 74.3418 74.87 74.2998 74.95C74.2578 75.03 74.2368 75.132 74.2368 75.256C74.2368 75.442 74.2818 75.579 74.3718 75.667C74.4618 75.753 74.5708 75.796 74.6988 75.796ZM75.8617 76V74.512H76.0717L76.0987 74.737H76.1137C76.1537 74.665 76.2167 74.604 76.3027 74.554C76.3887 74.502 76.4877 74.476 76.5997 74.476C76.7817 74.476 76.9177 74.53 77.0077 74.638C77.0997 74.746 77.1457 74.902 77.1457 75.106V76H76.8937V75.136C76.8937 75.004 76.8647 74.901 76.8067 74.827C76.7487 74.751 76.6587 74.713 76.5367 74.713C76.4187 74.713 76.3187 74.754 76.2367 74.836C76.1547 74.916 76.1137 75.032 76.1137 75.184V76H75.8617ZM78.3115 76.036C78.1215 76.036 77.9675 75.992 77.8495 75.904C77.7335 75.814 77.6685 75.691 77.6545 75.535H77.9155C77.9275 75.617 77.9675 75.684 78.0355 75.736C78.1055 75.788 78.1995 75.814 78.3175 75.814C78.4295 75.814 78.5125 75.79 78.5665 75.742C78.6225 75.694 78.6505 75.639 78.6505 75.577C78.6505 75.493 78.6175 75.436 78.5515 75.406C78.4855 75.374 78.3865 75.35 78.2545 75.334C78.0965 75.316 77.9655 75.273 77.8615 75.205C77.7575 75.137 77.7055 75.035 77.7055 74.899C77.7055 74.777 77.7565 74.676 77.8585 74.596C77.9605 74.516 78.0995 74.476 78.2755 74.476C78.4495 74.476 78.5865 74.516 78.6865 74.596C78.7865 74.674 78.8435 74.786 78.8575 74.932H78.6085C78.6025 74.86 78.5675 74.803 78.5035 74.761C78.4415 74.717 78.3635 74.695 78.2695 74.695C78.1715 74.695 78.0955 74.714 78.0415 74.752C77.9875 74.788 77.9605 74.836 77.9605 74.896C77.9605 74.956 77.9905 75.006 78.0505 75.046C78.1125 75.084 78.2095 75.109 78.3415 75.121C78.4455 75.133 78.5405 75.153 78.6265 75.181C78.7125 75.209 78.7805 75.253 78.8305 75.313C78.8825 75.373 78.9085 75.457 78.9085 75.565C78.9105 75.655 78.8855 75.736 78.8335 75.808C78.7835 75.878 78.7135 75.934 78.6235 75.976C78.5335 76.016 78.4295 76.036 78.3115 76.036ZM80.2513 76C80.1153 76 80.0083 75.967 79.9303 75.901C79.8523 75.835 79.8133 75.716 79.8133 75.544V74.728H79.4353V74.512H79.6603C79.7623 74.512 79.8213 74.462 79.8373 74.362L79.8793 74.131H80.0653V74.512H80.6593V74.728H80.0653V75.544C80.0653 75.628 80.0843 75.687 80.1223 75.721C80.1623 75.755 80.2303 75.772 80.3263 75.772H80.6593V76H80.2513ZM83.546 76L82.892 74.512H83.18L83.693 75.724L84.209 74.512H84.494L83.837 76H83.546ZM85.4738 74.248C85.4138 74.248 85.3638 74.228 85.3238 74.188C85.2838 74.148 85.2638 74.1 85.2638 74.044C85.2638 73.986 85.2838 73.938 85.3238 73.9C85.3638 73.86 85.4138 73.84 85.4738 73.84C85.5318 73.84 85.5808 73.86 85.6208 73.9C85.6628 73.938 85.6838 73.986 85.6838 74.044C85.6838 74.1 85.6628 74.148 85.6208 74.188C85.5808 74.228 85.5318 74.248 85.4738 74.248ZM84.8918 76V75.784H85.3658V74.803C85.3658 74.753 85.3408 74.728 85.2908 74.728H84.9428V74.512H85.3508C85.5288 74.512 85.6178 74.601 85.6178 74.779V75.784H86.0918V76H84.8918ZM86.6426 76V75.784H87.0236V74.803C87.0236 74.753 86.9996 74.728 86.9516 74.728H86.6816V74.512H87.0446C87.1106 74.512 87.1636 74.53 87.2036 74.566C87.2436 74.602 87.2636 74.655 87.2636 74.725V74.788H87.2756C87.2996 74.688 87.3446 74.611 87.4106 74.557C87.4786 74.503 87.5726 74.476 87.6926 74.476H87.9656V74.743H87.6566C87.5346 74.743 87.4406 74.784 87.3746 74.866C87.3086 74.946 87.2756 75.049 87.2756 75.175V75.784H87.7436V76H86.6426ZM89.2455 76C89.1095 76 89.0025 75.967 88.9245 75.901C88.8465 75.835 88.8075 75.716 88.8075 75.544V74.728H88.4295V74.512H88.6545C88.7565 74.512 88.8155 74.462 88.8315 74.362L88.8735 74.131H89.0595V74.512H89.6535V74.728H89.0595V75.544C89.0595 75.628 89.0785 75.687 89.1165 75.721C89.1565 75.755 89.2245 75.772 89.3205 75.772H89.6535V76H89.2455ZM90.7833 76.036C90.6033 76.036 90.4673 75.982 90.3753 75.874C90.2833 75.766 90.2373 75.61 90.2373 75.406V74.512H90.4893V75.376C90.4893 75.508 90.5183 75.612 90.5763 75.688C90.6363 75.762 90.7263 75.799 90.8463 75.799C90.9663 75.799 91.0673 75.759 91.1493 75.679C91.2313 75.597 91.2723 75.48 91.2723 75.328V74.512H91.5243V76H91.3143L91.2873 75.775H91.2723C91.2323 75.847 91.1693 75.909 91.0833 75.961C90.9973 76.011 90.8973 76.036 90.7833 76.036ZM92.5611 76.036C92.4431 76.036 92.3451 76.015 92.2671 75.973C92.1891 75.931 92.1311 75.876 92.0931 75.808C92.0551 75.738 92.0361 75.662 92.0361 75.58C92.0361 75.428 92.0911 75.313 92.2011 75.235C92.3131 75.155 92.4621 75.115 92.6481 75.115H93.0561V75.085C93.0561 74.825 92.9371 74.695 92.6991 74.695C92.6031 74.695 92.5221 74.716 92.4561 74.758C92.3921 74.8 92.3511 74.866 92.3331 74.956H92.0751C92.0851 74.856 92.1181 74.77 92.1741 74.698C92.2321 74.626 92.3061 74.571 92.3961 74.533C92.4861 74.495 92.5871 74.476 92.6991 74.476C92.9111 74.476 93.0651 74.532 93.1611 74.644C93.2591 74.754 93.3081 74.901 93.3081 75.085V76H93.0921L93.0711 75.769H93.0501C93.0061 75.841 92.9471 75.904 92.8731 75.958C92.8011 76.01 92.6971 76.036 92.5611 76.036ZM92.6061 75.814C92.7021 75.814 92.7831 75.791 92.8491 75.745C92.9171 75.699 92.9681 75.638 93.0021 75.562C93.0381 75.486 93.0561 75.403 93.0561 75.313H92.6691C92.5331 75.313 92.4371 75.336 92.3811 75.382C92.3271 75.428 92.3001 75.489 92.3001 75.565C92.3001 75.643 92.3261 75.704 92.3781 75.748C92.4301 75.792 92.5061 75.814 92.6061 75.814ZM93.8109 76V75.784H94.3179V74.131C94.3179 74.081 94.2929 74.056 94.2429 74.056H93.8649V73.84H94.3029C94.3889 73.84 94.4549 73.863 94.5009 73.909C94.5469 73.955 94.5699 74.021 94.5699 74.107V75.784H95.0769V76H93.8109ZM95.6068 76V73.9H96.3058C96.4658 73.9 96.5968 73.929 96.6988 73.987C96.8008 74.045 96.8758 74.122 96.9238 74.218C96.9718 74.314 96.9958 74.42 96.9958 74.536C96.9958 74.652 96.9718 74.758 96.9238 74.854C96.8758 74.95 96.8008 75.027 96.6988 75.085C96.5968 75.143 96.4658 75.172 96.3058 75.172H95.8588V76H95.6068ZM95.8588 74.941H96.2998C96.4478 74.941 96.5578 74.904 96.6298 74.83C96.7018 74.754 96.7378 74.656 96.7378 74.536C96.7378 74.416 96.7018 74.318 96.6298 74.242C96.5578 74.166 96.4478 74.128 96.2998 74.128H95.8588V74.941ZM97.4356 76V75.784H97.8166V74.803C97.8166 74.753 97.7926 74.728 97.7446 74.728H97.4746V74.512H97.8376C97.9036 74.512 97.9566 74.53 97.9966 74.566C98.0366 74.602 98.0566 74.655 98.0566 74.725V74.788H98.0686C98.0926 74.688 98.1376 74.611 98.2036 74.557C98.2716 74.503 98.3656 74.476 98.4856 74.476H98.7586V74.743H98.4496C98.3276 74.743 98.2336 74.784 98.1676 74.866C98.1016 74.946 98.0686 75.049 98.0686 75.175V75.784H98.5366V76H97.4356ZM99.8824 76.036C99.7424 76.036 99.6184 76.004 99.5104 75.94C99.4024 75.876 99.3174 75.786 99.2554 75.67C99.1934 75.552 99.1624 75.414 99.1624 75.256C99.1624 75.098 99.1934 74.961 99.2554 74.845C99.3174 74.727 99.4024 74.636 99.5104 74.572C99.6184 74.508 99.7424 74.476 99.8824 74.476C100.022 74.476 100.146 74.508 100.254 74.572C100.362 74.636 100.447 74.727 100.509 74.845C100.571 74.961 100.602 75.098 100.602 75.256C100.602 75.414 100.571 75.552 100.509 75.67C100.447 75.786 100.362 75.876 100.254 75.94C100.146 76.004 100.022 76.036 99.8824 76.036ZM99.8824 75.796C99.9684 75.796 100.046 75.777 100.116 75.739C100.186 75.701 100.241 75.642 100.281 75.562C100.323 75.482 100.344 75.38 100.344 75.256C100.344 75.132 100.323 75.03 100.281 74.95C100.241 74.87 100.186 74.811 100.116 74.773C100.046 74.735 99.9684 74.716 99.8824 74.716C99.7984 74.716 99.7214 74.735 99.6514 74.773C99.5814 74.811 99.5254 74.87 99.4834 74.95C99.4414 75.03 99.4204 75.132 99.4204 75.256C99.4204 75.442 99.4654 75.579 99.5554 75.667C99.6454 75.753 99.7544 75.796 99.8824 75.796ZM101.63 76.036C101.504 76.036 101.391 76.006 101.291 75.946C101.193 75.886 101.116 75.798 101.06 75.682C101.004 75.564 100.976 75.421 100.976 75.253C100.976 75.087 101.004 74.946 101.06 74.83C101.116 74.714 101.193 74.626 101.291 74.566C101.391 74.506 101.504 74.476 101.63 74.476C101.748 74.476 101.845 74.499 101.921 74.545C101.999 74.591 102.057 74.651 102.095 74.725V73.84H102.347V76H102.14L102.113 75.769H102.095C102.055 75.851 101.996 75.916 101.918 75.964C101.84 76.012 101.744 76.036 101.63 76.036ZM101.663 75.796C101.789 75.796 101.893 75.752 101.975 75.664C102.057 75.574 102.098 75.438 102.098 75.256C102.098 75.074 102.057 74.939 101.975 74.851C101.893 74.761 101.789 74.716 101.663 74.716C101.537 74.716 101.433 74.761 101.351 74.851C101.271 74.939 101.231 75.074 101.231 75.256C101.231 75.438 101.271 75.574 101.351 75.664C101.433 75.752 101.537 75.796 101.663 75.796ZM103.375 76.036C103.195 76.036 103.059 75.982 102.967 75.874C102.875 75.766 102.829 75.61 102.829 75.406V74.512H103.081V75.376C103.081 75.508 103.11 75.612 103.168 75.688C103.228 75.762 103.318 75.799 103.438 75.799C103.558 75.799 103.659 75.759 103.741 75.679C103.823 75.597 103.864 75.48 103.864 75.328V74.512H104.116V76H103.906L103.879 75.775H103.864C103.824 75.847 103.761 75.909 103.675 75.961C103.589 76.011 103.489 76.036 103.375 76.036ZM105.303 76.036C105.169 76.036 105.049 76.005 104.943 75.943C104.839 75.881 104.756 75.792 104.694 75.676C104.632 75.558 104.601 75.418 104.601 75.256C104.601 75.094 104.632 74.955 104.694 74.839C104.756 74.721 104.84 74.631 104.946 74.569C105.054 74.507 105.173 74.476 105.303 74.476C105.487 74.476 105.634 74.522 105.744 74.614C105.854 74.706 105.924 74.829 105.954 74.983H105.696C105.672 74.901 105.626 74.836 105.558 74.788C105.49 74.738 105.404 74.713 105.3 74.713C105.224 74.713 105.152 74.733 105.084 74.773C105.016 74.813 104.961 74.873 104.919 74.953C104.877 75.033 104.856 75.134 104.856 75.256C104.856 75.378 104.877 75.48 104.919 75.562C104.961 75.642 105.016 75.702 105.084 75.742C105.152 75.782 105.224 75.802 105.3 75.802C105.41 75.802 105.497 75.777 105.561 75.727C105.627 75.677 105.672 75.611 105.696 75.529H105.954C105.916 75.687 105.841 75.811 105.729 75.901C105.619 75.991 105.477 76.036 105.303 76.036ZM107.093 76.036C106.953 76.036 106.829 76.004 106.721 75.94C106.615 75.874 106.531 75.783 106.469 75.667C106.407 75.549 106.376 75.412 106.376 75.256C106.376 75.1 106.406 74.964 106.466 74.848C106.528 74.73 106.613 74.639 106.721 74.575C106.829 74.509 106.955 74.476 107.099 74.476C107.243 74.476 107.366 74.509 107.468 74.575C107.57 74.639 107.648 74.724 107.702 74.83C107.756 74.936 107.783 75.05 107.783 75.172C107.783 75.194 107.782 75.216 107.78 75.238C107.78 75.26 107.78 75.285 107.78 75.313H106.625C106.631 75.423 106.656 75.515 106.7 75.589C106.746 75.661 106.803 75.715 106.871 75.751C106.941 75.787 107.015 75.805 107.093 75.805C107.203 75.805 107.289 75.782 107.351 75.736C107.413 75.69 107.46 75.626 107.492 75.544H107.741C107.707 75.682 107.636 75.799 107.528 75.895C107.42 75.989 107.275 76.036 107.093 76.036ZM107.093 74.701C106.977 74.701 106.875 74.736 106.787 74.806C106.701 74.876 106.648 74.974 106.628 75.1H107.534C107.526 74.976 107.481 74.879 107.399 74.809C107.319 74.737 107.217 74.701 107.093 74.701ZM108.229 76V75.784H108.61V74.803C108.61 74.753 108.586 74.728 108.538 74.728H108.268V74.512H108.631C108.697 74.512 108.75 74.53 108.79 74.566C108.83 74.602 108.85 74.655 108.85 74.725V74.788H108.862C108.886 74.688 108.931 74.611 108.997 74.557C109.065 74.503 109.159 74.476 109.279 74.476H109.552V74.743H109.243C109.121 74.743 109.027 74.784 108.961 74.866C108.895 74.946 108.862 75.049 108.862 75.175V75.784H109.33V76H108.229ZM111.799 74.695V74.467H113.149V74.695H111.799ZM111.799 75.433V75.205H113.149V75.433H111.799ZM116.216 76.555C116.112 76.439 116.015 76.309 115.925 76.165C115.837 76.023 115.766 75.862 115.712 75.682C115.658 75.5 115.631 75.293 115.631 75.061C115.631 74.829 115.658 74.623 115.712 74.443C115.766 74.261 115.837 74.099 115.925 73.957C116.015 73.813 116.112 73.683 116.216 73.567H116.483V73.594C116.363 73.724 116.258 73.863 116.168 74.011C116.078 74.157 116.008 74.316 115.958 74.488C115.908 74.66 115.883 74.851 115.883 75.061C115.883 75.271 115.908 75.462 115.958 75.634C116.008 75.806 116.078 75.965 116.168 76.111C116.258 76.259 116.363 76.398 116.483 76.528V76.555H116.216ZM117.46 76.555V76.528C117.58 76.398 117.685 76.259 117.775 76.111C117.865 75.965 117.935 75.806 117.985 75.634C118.035 75.462 118.06 75.271 118.06 75.061C118.06 74.851 118.035 74.66 117.985 74.488C117.935 74.316 117.865 74.157 117.775 74.011C117.685 73.863 117.58 73.724 117.46 73.594V73.567H117.727C117.831 73.683 117.927 73.813 118.015 73.957C118.105 74.099 118.177 74.261 118.231 74.443C118.285 74.623 118.312 74.829 118.312 75.061C118.312 75.293 118.285 75.5 118.231 75.682C118.177 75.862 118.105 76.023 118.015 76.165C117.927 76.309 117.831 76.439 117.727 76.555H117.46ZM120.793 74.695V74.467H122.143V74.695H120.793ZM120.793 75.433V75.205H122.143V75.433H120.793ZM122.712 75.76L123.504 74.959V74.941L122.712 74.146H123.051L123.849 74.95L123.051 75.76H122.712ZM127.141 76.555C126.997 76.555 126.882 76.519 126.796 76.447C126.712 76.377 126.67 76.264 126.67 76.108C126.67 76.032 126.675 75.964 126.685 75.904C126.697 75.842 126.708 75.776 126.718 75.706C126.73 75.636 126.736 75.552 126.736 75.454C126.736 75.368 126.713 75.3 126.667 75.25C126.623 75.198 126.55 75.172 126.448 75.172H126.307V74.95H126.448C126.55 74.95 126.623 74.925 126.667 74.875C126.713 74.823 126.736 74.754 126.736 74.668C126.736 74.568 126.73 74.484 126.718 74.416C126.708 74.346 126.697 74.281 126.685 74.221C126.675 74.159 126.67 74.09 126.67 74.014C126.67 73.858 126.712 73.745 126.796 73.675C126.882 73.603 126.997 73.567 127.141 73.567H127.429V73.789H127.168C127.086 73.789 127.023 73.809 126.979 73.849C126.935 73.887 126.913 73.951 126.913 74.041C126.913 74.121 126.918 74.191 126.928 74.251C126.94 74.309 126.951 74.369 126.961 74.431C126.973 74.491 126.979 74.564 126.979 74.65C126.979 74.756 126.956 74.844 126.91 74.914C126.864 74.982 126.804 75.029 126.73 75.055V75.067C126.804 75.093 126.864 75.141 126.91 75.211C126.956 75.279 126.979 75.366 126.979 75.472C126.979 75.558 126.973 75.632 126.961 75.694C126.951 75.754 126.94 75.814 126.928 75.874C126.918 75.932 126.913 76.001 126.913 76.081C126.913 76.171 126.935 76.235 126.979 76.273C127.023 76.313 127.086 76.333 127.168 76.333H127.429V76.555H127.141ZM76.6537 80C76.5177 80 76.4107 79.967 76.3327 79.901C76.2547 79.835 76.2157 79.716 76.2157 79.544V78.728H75.8377V78.512H76.0627C76.1647 78.512 76.2237 78.462 76.2397 78.362L76.2817 78.131H76.4677V78.512H77.0617V78.728H76.4677V79.544C76.4677 79.628 76.4867 79.687 76.5247 79.721C76.5647 79.755 76.6327 79.772 76.7287 79.772H77.0617V80H76.6537ZM77.6455 80V77.84H77.8975V78.737C77.9375 78.661 78.0035 78.599 78.0955 78.551C78.1875 78.501 78.2885 78.476 78.3985 78.476C78.5805 78.476 78.7185 78.531 78.8125 78.641C78.9085 78.751 78.9565 78.905 78.9565 79.103V80H78.7045V79.136C78.7045 79.002 78.6715 78.898 78.6055 78.824C78.5415 78.75 78.4515 78.713 78.3355 78.713C78.2555 78.713 78.1825 78.731 78.1165 78.767C78.0505 78.803 77.9975 78.856 77.9575 78.926C77.9175 78.996 77.8975 79.082 77.8975 79.184V80H77.6455ZM80.0773 78.248C80.0173 78.248 79.9673 78.228 79.9273 78.188C79.8873 78.148 79.8673 78.1 79.8673 78.044C79.8673 77.986 79.8873 77.938 79.9273 77.9C79.9673 77.86 80.0173 77.84 80.0773 77.84C80.1353 77.84 80.1843 77.86 80.2243 77.9C80.2663 77.938 80.2873 77.986 80.2873 78.044C80.2873 78.1 80.2663 78.148 80.2243 78.188C80.1843 78.228 80.1353 78.248 80.0773 78.248ZM79.4953 80V79.784H79.9693V78.803C79.9693 78.753 79.9443 78.728 79.8943 78.728H79.5463V78.512H79.9543C80.1323 78.512 80.2213 78.601 80.2213 78.779V79.784H80.6953V80H79.4953ZM81.2581 80V78.512H81.4681L81.4951 78.737H81.5101C81.5501 78.665 81.6131 78.604 81.6991 78.554C81.7851 78.502 81.8841 78.476 81.9961 78.476C82.1781 78.476 82.3141 78.53 82.4041 78.638C82.4961 78.746 82.5421 78.902 82.5421 79.106V80H82.2901V79.136C82.2901 79.004 82.2611 78.901 82.2031 78.827C82.1451 78.751 82.0551 78.713 81.9331 78.713C81.8151 78.713 81.7151 78.754 81.6331 78.836C81.5511 78.916 81.5101 79.032 81.5101 79.184V80H81.2581ZM83.666 79.562C83.562 79.562 83.469 79.543 83.387 79.505L83.285 79.628C83.263 79.658 83.257 79.688 83.267 79.718C83.279 79.746 83.308 79.76 83.354 79.76H83.747C83.925 79.76 84.069 79.795 84.179 79.865C84.289 79.933 84.344 80.042 84.344 80.192C84.344 80.282 84.321 80.365 84.275 80.441C84.229 80.517 84.156 80.578 84.056 80.624C83.958 80.672 83.829 80.696 83.669 80.696C83.461 80.696 83.294 80.657 83.168 80.579C83.042 80.501 82.979 80.382 82.979 80.222C82.979 80.164 82.993 80.11 83.021 80.06C83.051 80.012 83.088 79.969 83.132 79.931C83.074 79.895 83.038 79.841 83.024 79.769C83.012 79.697 83.034 79.626 83.09 79.556L83.225 79.388C83.129 79.288 83.081 79.165 83.081 79.019C83.081 78.923 83.104 78.834 83.15 78.752C83.196 78.668 83.262 78.601 83.348 78.551C83.436 78.501 83.542 78.476 83.666 78.476C83.746 78.476 83.82 78.488 83.888 78.512H84.446V78.701L84.167 78.71V78.731C84.219 78.817 84.245 78.913 84.245 79.019C84.245 79.115 84.222 79.205 84.176 79.289C84.132 79.371 84.066 79.437 83.978 79.487C83.892 79.537 83.788 79.562 83.666 79.562ZM83.666 79.346C83.764 79.346 83.844 79.317 83.906 79.259C83.97 79.201 84.002 79.121 84.002 79.019C84.002 78.917 83.97 78.838 83.906 78.782C83.844 78.724 83.764 78.695 83.666 78.695C83.566 78.695 83.484 78.724 83.42 78.782C83.356 78.838 83.324 78.917 83.324 79.019C83.324 79.121 83.356 79.201 83.42 79.259C83.484 79.317 83.566 79.346 83.666 79.346ZM83.228 80.213C83.228 80.301 83.269 80.367 83.351 80.411C83.433 80.455 83.539 80.477 83.669 80.477C83.795 80.477 83.897 80.452 83.975 80.402C84.055 80.352 84.095 80.285 84.095 80.201C84.095 80.135 84.067 80.079 84.011 80.033C83.955 79.989 83.852 79.967 83.702 79.967H83.363C83.273 80.033 83.228 80.115 83.228 80.213ZM85.5068 80.036C85.3168 80.036 85.1628 79.992 85.0448 79.904C84.9288 79.814 84.8638 79.691 84.8498 79.535H85.1108C85.1228 79.617 85.1628 79.684 85.2308 79.736C85.3008 79.788 85.3948 79.814 85.5128 79.814C85.6248 79.814 85.7078 79.79 85.7618 79.742C85.8178 79.694 85.8458 79.639 85.8458 79.577C85.8458 79.493 85.8128 79.436 85.7468 79.406C85.6808 79.374 85.5818 79.35 85.4498 79.334C85.2918 79.316 85.1608 79.273 85.0568 79.205C84.9528 79.137 84.9008 79.035 84.9008 78.899C84.9008 78.777 84.9518 78.676 85.0538 78.596C85.1558 78.516 85.2948 78.476 85.4708 78.476C85.6448 78.476 85.7818 78.516 85.8818 78.596C85.9818 78.674 86.0388 78.786 86.0528 78.932H85.8038C85.7978 78.86 85.7628 78.803 85.6988 78.761C85.6368 78.717 85.5588 78.695 85.4648 78.695C85.3668 78.695 85.2908 78.714 85.2368 78.752C85.1828 78.788 85.1558 78.836 85.1558 78.896C85.1558 78.956 85.1858 79.006 85.2458 79.046C85.3078 79.084 85.4048 79.109 85.5368 79.121C85.6408 79.133 85.7358 79.153 85.8218 79.181C85.9078 79.209 85.9758 79.253 86.0258 79.313C86.0778 79.373 86.1038 79.457 86.1038 79.565C86.1058 79.655 86.0808 79.736 86.0288 79.808C85.9788 79.878 85.9088 79.934 85.8188 79.976C85.7288 80.016 85.6248 80.036 85.5068 80.036ZM87.2906 80.006C87.2286 80.006 87.1756 79.985 87.1316 79.943C87.0876 79.901 87.0656 79.849 87.0656 79.787C87.0656 79.727 87.0876 79.676 87.1316 79.634C87.1756 79.592 87.2286 79.571 87.2906 79.571C87.3526 79.571 87.4056 79.592 87.4496 79.634C87.4936 79.676 87.5156 79.727 87.5156 79.787C87.5156 79.849 87.4936 79.901 87.4496 79.943C87.4056 79.985 87.3526 80.006 87.2906 80.006ZM88.4235 80.66V78.512H88.6275L88.6575 78.758H88.6755C88.7135 78.678 88.7745 78.611 88.8585 78.557C88.9425 78.503 89.0415 78.476 89.1555 78.476C89.2755 78.476 89.3835 78.506 89.4795 78.566C89.5775 78.626 89.6545 78.715 89.7105 78.833C89.7665 78.949 89.7945 79.091 89.7945 79.259C89.7945 79.425 89.7655 79.566 89.7075 79.682C89.6515 79.798 89.5735 79.886 89.4735 79.946C89.3755 80.006 89.2625 80.036 89.1345 80.036C89.0205 80.036 88.9235 80.012 88.8435 79.964C88.7655 79.914 88.7095 79.856 88.6755 79.79V80.66H88.4235ZM89.1045 79.796C89.2305 79.796 89.3345 79.752 89.4165 79.664C89.4985 79.574 89.5395 79.438 89.5395 79.256C89.5395 79.074 89.4985 78.939 89.4165 78.851C89.3345 78.761 89.2305 78.716 89.1045 78.716C88.9785 78.716 88.8745 78.761 88.7925 78.851C88.7105 78.939 88.6695 79.074 88.6695 79.256C88.6695 79.438 88.7105 79.574 88.7925 79.664C88.8745 79.752 88.9785 79.796 89.1045 79.796ZM90.2403 80V79.784H90.6213V78.803C90.6213 78.753 90.5973 78.728 90.5493 78.728H90.2793V78.512H90.6423C90.7083 78.512 90.7613 78.53 90.8013 78.566C90.8413 78.602 90.8613 78.655 90.8613 78.725V78.788H90.8733C90.8973 78.688 90.9423 78.611 91.0083 78.557C91.0763 78.503 91.1703 78.476 91.2903 78.476H91.5633V78.743H91.2543C91.1323 78.743 91.0383 78.784 90.9723 78.866C90.9063 78.946 90.8733 79.049 90.8733 79.175V79.784H91.3413V80H90.2403ZM92.6871 80.036C92.5471 80.036 92.4231 80.004 92.3151 79.94C92.2071 79.876 92.1221 79.786 92.0601 79.67C91.9981 79.552 91.9671 79.414 91.9671 79.256C91.9671 79.098 91.9981 78.961 92.0601 78.845C92.1221 78.727 92.2071 78.636 92.3151 78.572C92.4231 78.508 92.5471 78.476 92.6871 78.476C92.8271 78.476 92.9511 78.508 93.0591 78.572C93.1671 78.636 93.2521 78.727 93.3141 78.845C93.3761 78.961 93.4071 79.098 93.4071 79.256C93.4071 79.414 93.3761 79.552 93.3141 79.67C93.2521 79.786 93.1671 79.876 93.0591 79.94C92.9511 80.004 92.8271 80.036 92.6871 80.036ZM92.6871 79.796C92.7731 79.796 92.8511 79.777 92.9211 79.739C92.9911 79.701 93.0461 79.642 93.0861 79.562C93.1281 79.482 93.1491 79.38 93.1491 79.256C93.1491 79.132 93.1281 79.03 93.0861 78.95C93.0461 78.87 92.9911 78.811 92.9211 78.773C92.8511 78.735 92.7731 78.716 92.6871 78.716C92.6031 78.716 92.5261 78.735 92.4561 78.773C92.3861 78.811 92.3301 78.87 92.2881 78.95C92.2461 79.03 92.2251 79.132 92.2251 79.256C92.2251 79.442 92.2701 79.579 92.3601 79.667C92.4501 79.753 92.5591 79.796 92.6871 79.796ZM93.6969 80V78.512H93.9039L93.9309 78.686H93.9459C93.9719 78.626 94.0109 78.576 94.0629 78.536C94.1169 78.496 94.1819 78.476 94.2579 78.476C94.3339 78.476 94.3979 78.495 94.4499 78.533C94.5039 78.569 94.5429 78.62 94.5669 78.686H94.5789C94.6049 78.626 94.6469 78.576 94.7049 78.536C94.7629 78.496 94.8329 78.476 94.9149 78.476C95.0289 78.476 95.1139 78.515 95.1699 78.593C95.2279 78.669 95.2569 78.771 95.2569 78.899V80H95.0109V78.938C95.0109 78.866 94.9959 78.809 94.9659 78.767C94.9379 78.725 94.8919 78.704 94.8279 78.704C94.7619 78.704 94.7079 78.729 94.6659 78.779C94.6239 78.829 94.6029 78.9 94.6029 78.992V80H94.3539V78.938C94.3539 78.866 94.3399 78.809 94.3119 78.767C94.2839 78.725 94.2379 78.704 94.1739 78.704C94.1079 78.704 94.0529 78.729 94.0089 78.779C93.9669 78.829 93.9459 78.9 93.9459 78.992V80H93.6969ZM96.2668 78.248C96.2068 78.248 96.1568 78.228 96.1168 78.188C96.0768 78.148 96.0568 78.1 96.0568 78.044C96.0568 77.986 96.0768 77.938 96.1168 77.9C96.1568 77.86 96.2068 77.84 96.2668 77.84C96.3248 77.84 96.3738 77.86 96.4138 77.9C96.4558 77.938 96.4768 77.986 96.4768 78.044C96.4768 78.1 96.4558 78.148 96.4138 78.188C96.3738 78.228 96.3248 78.248 96.2668 78.248ZM95.6848 80V79.784H96.1588V78.803C96.1588 78.753 96.1338 78.728 96.0838 78.728H95.7358V78.512H96.1438C96.3218 78.512 96.4108 78.601 96.4108 78.779V79.784H96.8848V80H95.6848ZM98.0986 80.036C97.9086 80.036 97.7546 79.992 97.6366 79.904C97.5206 79.814 97.4556 79.691 97.4416 79.535H97.7026C97.7146 79.617 97.7546 79.684 97.8226 79.736C97.8926 79.788 97.9866 79.814 98.1046 79.814C98.2166 79.814 98.2996 79.79 98.3536 79.742C98.4096 79.694 98.4376 79.639 98.4376 79.577C98.4376 79.493 98.4046 79.436 98.3386 79.406C98.2726 79.374 98.1736 79.35 98.0416 79.334C97.8836 79.316 97.7526 79.273 97.6486 79.205C97.5446 79.137 97.4926 79.035 97.4926 78.899C97.4926 78.777 97.5436 78.676 97.6456 78.596C97.7476 78.516 97.8866 78.476 98.0626 78.476C98.2366 78.476 98.3736 78.516 98.4736 78.596C98.5736 78.674 98.6306 78.786 98.6446 78.932H98.3956C98.3896 78.86 98.3546 78.803 98.2906 78.761C98.2286 78.717 98.1506 78.695 98.0566 78.695C97.9586 78.695 97.8826 78.714 97.8286 78.752C97.7746 78.788 97.7476 78.836 97.7476 78.896C97.7476 78.956 97.7776 79.006 97.8376 79.046C97.8996 79.084 97.9966 79.109 98.1286 79.121C98.2326 79.133 98.3276 79.153 98.4136 79.181C98.4996 79.209 98.5676 79.253 98.6176 79.313C98.6696 79.373 98.6956 79.457 98.6956 79.565C98.6976 79.655 98.6726 79.736 98.6206 79.808C98.5706 79.878 98.5006 79.934 98.4106 79.976C98.3206 80.016 98.2166 80.036 98.0986 80.036ZM99.8974 80.036C99.7574 80.036 99.6334 80.004 99.5254 79.94C99.4194 79.874 99.3354 79.783 99.2734 79.667C99.2114 79.549 99.1804 79.412 99.1804 79.256C99.1804 79.1 99.2104 78.964 99.2704 78.848C99.3324 78.73 99.4174 78.639 99.5254 78.575C99.6334 78.509 99.7594 78.476 99.9034 78.476C100.047 78.476 100.17 78.509 100.272 78.575C100.374 78.639 100.452 78.724 100.506 78.83C100.56 78.936 100.587 79.05 100.587 79.172C100.587 79.194 100.586 79.216 100.584 79.238C100.584 79.26 100.584 79.285 100.584 79.313H99.4294C99.4354 79.423 99.4604 79.515 99.5044 79.589C99.5504 79.661 99.6074 79.715 99.6754 79.751C99.7454 79.787 99.8194 79.805 99.8974 79.805C100.007 79.805 100.093 79.782 100.155 79.736C100.217 79.69 100.264 79.626 100.296 79.544H100.545C100.511 79.682 100.44 79.799 100.332 79.895C100.224 79.989 100.079 80.036 99.8974 80.036ZM99.8974 78.701C99.7814 78.701 99.6794 78.736 99.5914 78.806C99.5054 78.876 99.4524 78.974 99.4324 79.1H100.338C100.33 78.976 100.285 78.879 100.203 78.809C100.123 78.737 100.021 78.701 99.8974 78.701ZM101.825 80.555C101.721 80.439 101.624 80.309 101.534 80.165C101.446 80.023 101.375 79.862 101.321 79.682C101.267 79.5 101.24 79.293 101.24 79.061C101.24 78.829 101.267 78.623 101.321 78.443C101.375 78.261 101.446 78.099 101.534 77.957C101.624 77.813 101.721 77.683 101.825 77.567H102.092V77.594C101.972 77.724 101.867 77.863 101.777 78.011C101.687 78.157 101.617 78.316 101.567 78.488C101.517 78.66 101.492 78.851 101.492 79.061C101.492 79.271 101.517 79.462 101.567 79.634C101.617 79.806 101.687 79.965 101.777 80.111C101.867 80.259 101.972 80.398 102.092 80.528V80.555H101.825ZM103.069 80.555V80.528C103.189 80.398 103.294 80.259 103.384 80.111C103.474 79.965 103.544 79.806 103.594 79.634C103.644 79.462 103.669 79.271 103.669 79.061C103.669 78.851 103.644 78.66 103.594 78.488C103.544 78.316 103.474 78.157 103.384 78.011C103.294 77.863 103.189 77.724 103.069 77.594V77.567H103.336C103.44 77.683 103.536 77.813 103.624 77.957C103.714 78.099 103.786 78.261 103.84 78.443C103.894 78.623 103.921 78.829 103.921 79.061C103.921 79.293 103.894 79.5 103.84 79.682C103.786 79.862 103.714 80.023 103.624 80.165C103.536 80.309 103.44 80.439 103.336 80.555H103.069ZM76.3717 84.036C76.2537 84.036 76.1557 84.015 76.0777 83.973C75.9997 83.931 75.9417 83.876 75.9037 83.808C75.8657 83.738 75.8467 83.662 75.8467 83.58C75.8467 83.428 75.9017 83.313 76.0117 83.235C76.1237 83.155 76.2727 83.115 76.4587 83.115H76.8667V83.085C76.8667 82.825 76.7477 82.695 76.5097 82.695C76.4137 82.695 76.3327 82.716 76.2667 82.758C76.2027 82.8 76.1617 82.866 76.1437 82.956H75.8857C75.8957 82.856 75.9287 82.77 75.9847 82.698C76.0427 82.626 76.1167 82.571 76.2067 82.533C76.2967 82.495 76.3977 82.476 76.5097 82.476C76.7217 82.476 76.8757 82.532 76.9717 82.644C77.0697 82.754 77.1187 82.901 77.1187 83.085V84H76.9027L76.8817 83.769H76.8607C76.8167 83.841 76.7577 83.904 76.6837 83.958C76.6117 84.01 76.5077 84.036 76.3717 84.036ZM76.4167 83.814C76.5127 83.814 76.5937 83.791 76.6597 83.745C76.7277 83.699 76.7787 83.638 76.8127 83.562C76.8487 83.486 76.8667 83.403 76.8667 83.313H76.4797C76.3437 83.313 76.2477 83.336 76.1917 83.382C76.1377 83.428 76.1107 83.489 76.1107 83.565C76.1107 83.643 76.1367 83.704 76.1887 83.748C76.2407 83.792 76.3167 83.814 76.4167 83.814ZM78.3115 84.036C78.1215 84.036 77.9675 83.992 77.8495 83.904C77.7335 83.814 77.6685 83.691 77.6545 83.535H77.9155C77.9275 83.617 77.9675 83.684 78.0355 83.736C78.1055 83.788 78.1995 83.814 78.3175 83.814C78.4295 83.814 78.5125 83.79 78.5665 83.742C78.6225 83.694 78.6505 83.639 78.6505 83.577C78.6505 83.493 78.6175 83.436 78.5515 83.406C78.4855 83.374 78.3865 83.35 78.2545 83.334C78.0965 83.316 77.9655 83.273 77.8615 83.205C77.7575 83.137 77.7055 83.035 77.7055 82.899C77.7055 82.777 77.7565 82.676 77.8585 82.596C77.9605 82.516 78.0995 82.476 78.2755 82.476C78.4495 82.476 78.5865 82.516 78.6865 82.596C78.7865 82.674 78.8435 82.786 78.8575 82.932H78.6085C78.6025 82.86 78.5675 82.803 78.5035 82.761C78.4415 82.717 78.3635 82.695 78.2695 82.695C78.1715 82.695 78.0955 82.714 78.0415 82.752C77.9875 82.788 77.9605 82.836 77.9605 82.896C77.9605 82.956 77.9905 83.006 78.0505 83.046C78.1125 83.084 78.2095 83.109 78.3415 83.121C78.4455 83.133 78.5405 83.153 78.6265 83.181C78.7125 83.209 78.7805 83.253 78.8305 83.313C78.8825 83.373 78.9085 83.457 78.9085 83.565C78.9105 83.655 78.8855 83.736 78.8335 83.808C78.7835 83.878 78.7135 83.934 78.6235 83.976C78.5335 84.016 78.4295 84.036 78.3115 84.036ZM79.5283 84V81.84H79.7803V83.142L80.4013 82.512H80.7223L80.0593 83.175V83.193L80.8033 84H80.4913L79.7803 83.226V84H79.5283ZM81.2911 84V83.781H81.7681V82.119H81.2911V81.9H82.4971V82.119H82.0201V83.781H82.4971V84H81.2911ZM83.069 84.66V84.429H83.252C83.328 84.429 83.382 84.414 83.414 84.384C83.446 84.354 83.462 84.301 83.462 84.225V82.728H83.093V82.512H83.462V82.275C83.462 82.121 83.499 82.01 83.573 81.942C83.647 81.874 83.759 81.84 83.909 81.84H84.266V82.068H83.924C83.85 82.068 83.796 82.084 83.762 82.116C83.73 82.146 83.714 82.199 83.714 82.275V82.512H84.266V82.728H83.714V84.225C83.714 84.379 83.677 84.49 83.603 84.558C83.529 84.626 83.418 84.66 83.27 84.66H83.069ZM84.8138 84V81.9H85.5128C85.6728 81.9 85.8038 81.929 85.9058 81.987C86.0078 82.045 86.0828 82.122 86.1308 82.218C86.1788 82.314 86.2028 82.42 86.2028 82.536C86.2028 82.652 86.1788 82.758 86.1308 82.854C86.0828 82.95 86.0078 83.027 85.9058 83.085C85.8038 83.143 85.6728 83.172 85.5128 83.172H85.0658V84H84.8138ZM85.0658 82.941H85.5068C85.6548 82.941 85.7648 82.904 85.8368 82.83C85.9088 82.754 85.9448 82.656 85.9448 82.536C85.9448 82.416 85.9088 82.318 85.8368 82.242C85.7648 82.166 85.6548 82.128 85.5068 82.128H85.0658V82.941ZM87.2906 84.036C87.1506 84.036 87.0266 84.004 86.9186 83.94C86.8106 83.876 86.7256 83.786 86.6636 83.67C86.6016 83.552 86.5706 83.414 86.5706 83.256C86.5706 83.098 86.6016 82.961 86.6636 82.845C86.7256 82.727 86.8106 82.636 86.9186 82.572C87.0266 82.508 87.1506 82.476 87.2906 82.476C87.4306 82.476 87.5546 82.508 87.6626 82.572C87.7706 82.636 87.8556 82.727 87.9176 82.845C87.9796 82.961 88.0106 83.098 88.0106 83.256C88.0106 83.414 87.9796 83.552 87.9176 83.67C87.8556 83.786 87.7706 83.876 87.6626 83.94C87.5546 84.004 87.4306 84.036 87.2906 84.036ZM87.2906 83.796C87.3766 83.796 87.4546 83.777 87.5246 83.739C87.5946 83.701 87.6496 83.642 87.6896 83.562C87.7316 83.482 87.7526 83.38 87.7526 83.256C87.7526 83.132 87.7316 83.03 87.6896 82.95C87.6496 82.87 87.5946 82.811 87.5246 82.773C87.4546 82.735 87.3766 82.716 87.2906 82.716C87.2066 82.716 87.1296 82.735 87.0596 82.773C86.9896 82.811 86.9336 82.87 86.8916 82.95C86.8496 83.03 86.8286 83.132 86.8286 83.256C86.8286 83.442 86.8736 83.579 86.9636 83.667C87.0536 83.753 87.1626 83.796 87.2906 83.796ZM89.1045 84.036C88.9145 84.036 88.7605 83.992 88.6425 83.904C88.5265 83.814 88.4615 83.691 88.4475 83.535H88.7085C88.7205 83.617 88.7605 83.684 88.8285 83.736C88.8985 83.788 88.9925 83.814 89.1105 83.814C89.2225 83.814 89.3055 83.79 89.3595 83.742C89.4155 83.694 89.4435 83.639 89.4435 83.577C89.4435 83.493 89.4105 83.436 89.3445 83.406C89.2785 83.374 89.1795 83.35 89.0475 83.334C88.8895 83.316 88.7585 83.273 88.6545 83.205C88.5505 83.137 88.4985 83.035 88.4985 82.899C88.4985 82.777 88.5495 82.676 88.6515 82.596C88.7535 82.516 88.8925 82.476 89.0685 82.476C89.2425 82.476 89.3795 82.516 89.4795 82.596C89.5795 82.674 89.6365 82.786 89.6505 82.932H89.4015C89.3955 82.86 89.3605 82.803 89.2965 82.761C89.2345 82.717 89.1565 82.695 89.0625 82.695C88.9645 82.695 88.8885 82.714 88.8345 82.752C88.7805 82.788 88.7535 82.836 88.7535 82.896C88.7535 82.956 88.7835 83.006 88.8435 83.046C88.9055 83.084 89.0025 83.109 89.1345 83.121C89.2385 83.133 89.3335 83.153 89.4195 83.181C89.5055 83.209 89.5735 83.253 89.6235 83.313C89.6755 83.373 89.7015 83.457 89.7015 83.565C89.7035 83.655 89.6785 83.736 89.6265 83.808C89.5765 83.878 89.5065 83.934 89.4165 83.976C89.3265 84.016 89.2225 84.036 89.1045 84.036ZM90.8703 82.248C90.8103 82.248 90.7603 82.228 90.7203 82.188C90.6803 82.148 90.6603 82.1 90.6603 82.044C90.6603 81.986 90.6803 81.938 90.7203 81.9C90.7603 81.86 90.8103 81.84 90.8703 81.84C90.9283 81.84 90.9773 81.86 91.0173 81.9C91.0593 81.938 91.0803 81.986 91.0803 82.044C91.0803 82.1 91.0593 82.148 91.0173 82.188C90.9773 82.228 90.9283 82.248 90.8703 82.248ZM90.2883 84V83.784H90.7623V82.803C90.7623 82.753 90.7373 82.728 90.6873 82.728H90.3393V82.512H90.7473C90.9253 82.512 91.0143 82.601 91.0143 82.779V83.784H91.4883V84H90.2883ZM92.7381 84.036C92.6241 84.036 92.5271 84.013 92.4471 83.967C92.3691 83.919 92.3111 83.854 92.2731 83.772H92.2551L92.2281 84H92.0211V81.84H92.2731V82.725C92.3111 82.659 92.3701 82.601 92.4501 82.551C92.5321 82.501 92.6281 82.476 92.7381 82.476C92.8661 82.476 92.9791 82.506 93.0771 82.566C93.1751 82.626 93.2521 82.714 93.3081 82.83C93.3641 82.946 93.3921 83.087 93.3921 83.253C93.3921 83.421 93.3641 83.564 93.3081 83.682C93.2521 83.798 93.1741 83.886 93.0741 83.946C92.9761 84.006 92.8641 84.036 92.7381 84.036ZM92.7051 83.796C92.8311 83.796 92.9341 83.752 93.0141 83.664C93.0961 83.574 93.1371 83.438 93.1371 83.256C93.1371 83.074 93.0961 82.939 93.0141 82.851C92.9341 82.761 92.8311 82.716 92.7051 82.716C92.5791 82.716 92.4751 82.761 92.3931 82.851C92.3111 82.939 92.2701 83.074 92.2701 83.256C92.2701 83.438 92.3111 83.574 92.3931 83.664C92.4751 83.752 92.5791 83.796 92.7051 83.796ZM93.8109 84V83.784H94.3179V82.131C94.3179 82.081 94.2929 82.056 94.2429 82.056H93.8649V81.84H94.3029C94.3889 81.84 94.4549 81.863 94.5009 81.909C94.5469 81.955 94.5699 82.021 94.5699 82.107V83.784H95.0769V84H93.8109ZM96.2998 84.036C96.1598 84.036 96.0358 84.004 95.9278 83.94C95.8218 83.874 95.7378 83.783 95.6758 83.667C95.6138 83.549 95.5828 83.412 95.5828 83.256C95.5828 83.1 95.6128 82.964 95.6728 82.848C95.7348 82.73 95.8198 82.639 95.9278 82.575C96.0358 82.509 96.1618 82.476 96.3058 82.476C96.4498 82.476 96.5728 82.509 96.6748 82.575C96.7768 82.639 96.8548 82.724 96.9088 82.83C96.9628 82.936 96.9898 83.05 96.9898 83.172C96.9898 83.194 96.9888 83.216 96.9868 83.238C96.9868 83.26 96.9868 83.285 96.9868 83.313H95.8318C95.8378 83.423 95.8628 83.515 95.9068 83.589C95.9528 83.661 96.0098 83.715 96.0778 83.751C96.1478 83.787 96.2218 83.805 96.2998 83.805C96.4098 83.805 96.4958 83.782 96.5578 83.736C96.6198 83.69 96.6668 83.626 96.6988 83.544H96.9478C96.9138 83.682 96.8428 83.799 96.7348 83.895C96.6268 83.989 96.4818 84.036 96.2998 84.036ZM96.2998 82.701C96.1838 82.701 96.0818 82.736 95.9938 82.806C95.9078 82.876 95.8548 82.974 95.8348 83.1H96.7408C96.7328 82.976 96.6878 82.879 96.6058 82.809C96.5258 82.737 96.4238 82.701 96.2998 82.701ZM98.2276 84.555C98.1236 84.439 98.0266 84.309 97.9366 84.165C97.8486 84.023 97.7776 83.862 97.7236 83.682C97.6696 83.5 97.6426 83.293 97.6426 83.061C97.6426 82.829 97.6696 82.623 97.7236 82.443C97.7776 82.261 97.8486 82.099 97.9366 81.957C98.0266 81.813 98.1236 81.683 98.2276 81.567H98.4946V81.594C98.3746 81.724 98.2696 81.863 98.1796 82.011C98.0896 82.157 98.0196 82.316 97.9696 82.488C97.9196 82.66 97.8946 82.851 97.8946 83.061C97.8946 83.271 97.9196 83.462 97.9696 83.634C98.0196 83.806 98.0896 83.965 98.1796 84.111C98.2696 84.259 98.3746 84.398 98.4946 84.528V84.555H98.2276ZM100.038 84C99.9024 84 99.7954 83.967 99.7174 83.901C99.6394 83.835 99.6004 83.716 99.6004 83.544V82.728H99.2224V82.512H99.4474C99.5494 82.512 99.6084 82.462 99.6244 82.362L99.6664 82.131H99.8524V82.512H100.446V82.728H99.8524V83.544C99.8524 83.628 99.8714 83.687 99.9094 83.721C99.9494 83.755 100.017 83.772 100.113 83.772H100.446V84H100.038ZM101.03 84V81.84H101.282V82.737C101.322 82.661 101.388 82.599 101.48 82.551C101.572 82.501 101.673 82.476 101.783 82.476C101.965 82.476 102.103 82.531 102.197 82.641C102.293 82.751 102.341 82.905 102.341 83.103V84H102.089V83.136C102.089 83.002 102.056 82.898 101.99 82.824C101.926 82.75 101.836 82.713 101.72 82.713C101.64 82.713 101.567 82.731 101.501 82.767C101.435 82.803 101.382 82.856 101.342 82.926C101.302 82.996 101.282 83.082 101.282 83.184V84H101.03ZM103.462 82.248C103.402 82.248 103.352 82.228 103.312 82.188C103.272 82.148 103.252 82.1 103.252 82.044C103.252 81.986 103.272 81.938 103.312 81.9C103.352 81.86 103.402 81.84 103.462 81.84C103.52 81.84 103.569 81.86 103.609 81.9C103.651 81.938 103.672 81.986 103.672 82.044C103.672 82.1 103.651 82.148 103.609 82.188C103.569 82.228 103.52 82.248 103.462 82.248ZM102.88 84V83.784H103.354V82.803C103.354 82.753 103.329 82.728 103.279 82.728H102.931V82.512H103.339C103.517 82.512 103.606 82.601 103.606 82.779V83.784H104.08V84H102.88ZM104.643 84V82.512H104.853L104.88 82.737H104.895C104.935 82.665 104.998 82.604 105.084 82.554C105.17 82.502 105.269 82.476 105.381 82.476C105.563 82.476 105.699 82.53 105.789 82.638C105.881 82.746 105.927 82.902 105.927 83.106V84H105.675V83.136C105.675 83.004 105.646 82.901 105.588 82.827C105.53 82.751 105.44 82.713 105.318 82.713C105.2 82.713 105.1 82.754 105.018 82.836C104.936 82.916 104.895 83.032 104.895 83.184V84H104.643ZM107.051 83.562C106.947 83.562 106.854 83.543 106.772 83.505L106.67 83.628C106.648 83.658 106.642 83.688 106.652 83.718C106.664 83.746 106.693 83.76 106.739 83.76H107.132C107.31 83.76 107.454 83.795 107.564 83.865C107.674 83.933 107.729 84.042 107.729 84.192C107.729 84.282 107.706 84.365 107.66 84.441C107.614 84.517 107.541 84.578 107.441 84.624C107.343 84.672 107.214 84.696 107.054 84.696C106.846 84.696 106.679 84.657 106.553 84.579C106.427 84.501 106.364 84.382 106.364 84.222C106.364 84.164 106.378 84.11 106.406 84.06C106.436 84.012 106.473 83.969 106.517 83.931C106.459 83.895 106.423 83.841 106.409 83.769C106.397 83.697 106.419 83.626 106.475 83.556L106.61 83.388C106.514 83.288 106.466 83.165 106.466 83.019C106.466 82.923 106.489 82.834 106.535 82.752C106.581 82.668 106.647 82.601 106.733 82.551C106.821 82.501 106.927 82.476 107.051 82.476C107.131 82.476 107.205 82.488 107.273 82.512H107.831V82.701L107.552 82.71V82.731C107.604 82.817 107.63 82.913 107.63 83.019C107.63 83.115 107.607 83.205 107.561 83.289C107.517 83.371 107.451 83.437 107.363 83.487C107.277 83.537 107.173 83.562 107.051 83.562ZM107.051 83.346C107.149 83.346 107.229 83.317 107.291 83.259C107.355 83.201 107.387 83.121 107.387 83.019C107.387 82.917 107.355 82.838 107.291 82.782C107.229 82.724 107.149 82.695 107.051 82.695C106.951 82.695 106.869 82.724 106.805 82.782C106.741 82.838 106.709 82.917 106.709 83.019C106.709 83.121 106.741 83.201 106.805 83.259C106.869 83.317 106.951 83.346 107.051 83.346ZM106.613 84.213C106.613 84.301 106.654 84.367 106.736 84.411C106.818 84.455 106.924 84.477 107.054 84.477C107.18 84.477 107.282 84.452 107.36 84.402C107.44 84.352 107.48 84.285 107.48 84.201C107.48 84.135 107.452 84.079 107.396 84.033C107.34 83.989 107.237 83.967 107.087 83.967H106.748C106.658 84.033 106.613 84.115 106.613 84.213ZM108.892 84.036C108.702 84.036 108.548 83.992 108.43 83.904C108.314 83.814 108.249 83.691 108.235 83.535H108.496C108.508 83.617 108.548 83.684 108.616 83.736C108.686 83.788 108.78 83.814 108.898 83.814C109.01 83.814 109.093 83.79 109.147 83.742C109.203 83.694 109.231 83.639 109.231 83.577C109.231 83.493 109.198 83.436 109.132 83.406C109.066 83.374 108.967 83.35 108.835 83.334C108.677 83.316 108.546 83.273 108.442 83.205C108.338 83.137 108.286 83.035 108.286 82.899C108.286 82.777 108.337 82.676 108.439 82.596C108.541 82.516 108.68 82.476 108.856 82.476C109.03 82.476 109.167 82.516 109.267 82.596C109.367 82.674 109.424 82.786 109.438 82.932H109.189C109.183 82.86 109.148 82.803 109.084 82.761C109.022 82.717 108.944 82.695 108.85 82.695C108.752 82.695 108.676 82.714 108.622 82.752C108.568 82.788 108.541 82.836 108.541 82.896C108.541 82.956 108.571 83.006 108.631 83.046C108.693 83.084 108.79 83.109 108.922 83.121C109.026 83.133 109.121 83.153 109.207 83.181C109.293 83.209 109.361 83.253 109.411 83.313C109.463 83.373 109.489 83.457 109.489 83.565C109.491 83.655 109.466 83.736 109.414 83.808C109.364 83.878 109.294 83.934 109.204 83.976C109.114 84.016 109.01 84.036 108.892 84.036ZM110.264 84.555V84.528C110.384 84.398 110.489 84.259 110.579 84.111C110.669 83.965 110.739 83.806 110.789 83.634C110.839 83.462 110.864 83.271 110.864 83.061C110.864 82.851 110.839 82.66 110.789 82.488C110.739 82.316 110.669 82.157 110.579 82.011C110.489 81.863 110.384 81.724 110.264 81.594V81.567H110.531C110.635 81.683 110.731 81.813 110.819 81.957C110.909 82.099 110.981 82.261 111.035 82.443C111.089 82.623 111.116 82.829 111.116 83.061C111.116 83.293 111.089 83.5 111.035 83.682C110.981 83.862 110.909 84.023 110.819 84.165C110.731 84.309 110.635 84.439 110.531 84.555H110.264ZM76.0447 88.66L76.4107 87.856H76.3237L75.7357 86.512H76.0087L76.4977 87.664L77.0137 86.512H77.2777L76.3087 88.66H76.0447ZM78.3115 88.036C78.1715 88.036 78.0475 88.004 77.9395 87.94C77.8335 87.874 77.7495 87.783 77.6875 87.667C77.6255 87.549 77.5945 87.412 77.5945 87.256C77.5945 87.1 77.6245 86.964 77.6845 86.848C77.7465 86.73 77.8315 86.639 77.9395 86.575C78.0475 86.509 78.1735 86.476 78.3175 86.476C78.4615 86.476 78.5845 86.509 78.6865 86.575C78.7885 86.639 78.8665 86.724 78.9205 86.83C78.9745 86.936 79.0015 87.05 79.0015 87.172C79.0015 87.194 79.0005 87.216 78.9985 87.238C78.9985 87.26 78.9985 87.285 78.9985 87.313H77.8435C77.8495 87.423 77.8745 87.515 77.9185 87.589C77.9645 87.661 78.0215 87.715 78.0895 87.751C78.1595 87.787 78.2335 87.805 78.3115 87.805C78.4215 87.805 78.5075 87.782 78.5695 87.736C78.6315 87.69 78.6785 87.626 78.7105 87.544H78.9595C78.9255 87.682 78.8545 87.799 78.7465 87.895C78.6385 87.989 78.4935 88.036 78.3115 88.036ZM78.3115 86.701C78.1955 86.701 78.0935 86.736 78.0055 86.806C77.9195 86.876 77.8665 86.974 77.8465 87.1H78.7525C78.7445 86.976 78.6995 86.879 78.6175 86.809C78.5375 86.737 78.4355 86.701 78.3115 86.701ZM79.4203 88V87.784H79.9273V86.131C79.9273 86.081 79.9023 86.056 79.8523 86.056H79.4743V85.84H79.9123C79.9983 85.84 80.0643 85.863 80.1103 85.909C80.1563 85.955 80.1793 86.021 80.1793 86.107V87.784H80.6863V88H79.4203ZM81.2191 88V87.784H81.7261V86.131C81.7261 86.081 81.7011 86.056 81.6511 86.056H81.2731V85.84H81.7111C81.7971 85.84 81.8631 85.863 81.9091 85.909C81.9551 85.955 81.9781 86.021 81.9781 86.107V87.784H82.4851V88H81.2191ZM83.837 88.555C83.733 88.439 83.636 88.309 83.546 88.165C83.458 88.023 83.387 87.862 83.333 87.682C83.279 87.5 83.252 87.293 83.252 87.061C83.252 86.829 83.279 86.623 83.333 86.443C83.387 86.261 83.458 86.099 83.546 85.957C83.636 85.813 83.733 85.683 83.837 85.567H84.104V85.594C83.984 85.724 83.879 85.863 83.789 86.011C83.699 86.157 83.629 86.316 83.579 86.488C83.529 86.66 83.504 86.851 83.504 87.061C83.504 87.271 83.529 87.462 83.579 87.634C83.629 87.806 83.699 87.965 83.789 88.111C83.879 88.259 83.984 88.398 84.104 88.528V88.555H83.837ZM85.0808 88.555V88.528C85.2008 88.398 85.3058 88.259 85.3958 88.111C85.4858 87.965 85.5558 87.806 85.6058 87.634C85.6558 87.462 85.6808 87.271 85.6808 87.061C85.6808 86.851 85.6558 86.66 85.6058 86.488C85.5558 86.316 85.4858 86.157 85.3958 86.011C85.3058 85.863 85.2008 85.724 85.0808 85.594V85.567H85.3478C85.4518 85.683 85.5478 85.813 85.6358 85.957C85.7258 86.099 85.7978 86.261 85.8518 86.443C85.9058 86.623 85.9328 86.829 85.9328 87.061C85.9328 87.293 85.9058 87.5 85.8518 87.682C85.7978 87.862 85.7258 88.023 85.6358 88.165C85.5478 88.309 85.4518 88.439 85.3478 88.555H85.0808ZM72.336 92.555V92.333H72.597C72.679 92.333 72.742 92.313 72.786 92.273C72.83 92.235 72.852 92.171 72.852 92.081C72.852 92.001 72.846 91.932 72.834 91.874C72.824 91.814 72.813 91.754 72.801 91.694C72.791 91.632 72.786 91.558 72.786 91.472C72.786 91.366 72.809 91.279 72.855 91.211C72.901 91.141 72.961 91.093 73.035 91.067V91.055C72.961 91.029 72.901 90.982 72.855 90.914C72.809 90.844 72.786 90.756 72.786 90.65C72.786 90.564 72.791 90.491 72.801 90.431C72.813 90.369 72.824 90.309 72.834 90.251C72.846 90.191 72.852 90.121 72.852 90.041C72.852 89.951 72.83 89.887 72.786 89.849C72.742 89.809 72.679 89.789 72.597 89.789H72.336V89.567H72.624C72.768 89.567 72.882 89.603 72.966 89.675C73.052 89.745 73.095 89.858 73.095 90.014C73.095 90.09 73.089 90.159 73.077 90.221C73.067 90.281 73.056 90.346 73.044 90.416C73.034 90.484 73.029 90.568 73.029 90.668C73.029 90.754 73.051 90.823 73.095 90.875C73.141 90.925 73.215 90.95 73.317 90.95H73.458V91.172H73.317C73.215 91.172 73.141 91.198 73.095 91.25C73.051 91.3 73.029 91.368 73.029 91.454C73.029 91.552 73.034 91.636 73.044 91.706C73.056 91.776 73.067 91.842 73.077 91.904C73.089 91.964 73.095 92.032 73.095 92.108C73.095 92.264 73.052 92.377 72.966 92.447C72.882 92.519 72.768 92.555 72.624 92.555H72.336Z" fill="#80C565"/>
</svg>
