<svg width="120" height="117" viewBox="0 0 120 117" fill="none" xmlns="http://www.w3.org/2000/svg">
<rect width="40.5612" height="7.09311" transform="matrix(0.980669 0.195672 -0.184633 0.982808 48.3096 69)" fill="#80C565"/>
<rect x="78.2648" y="6.25" width="41.7353" height="61.25" fill="#F3F3F3"/>
<rect x="82.0588" y="21.25" width="8.85294" height="1.25" fill="#002B55"/>
<rect x="101.029" y="21.25" width="8.85294" height="1.25" fill="#002B55"/>
<rect x="73.2059" width="46.7941" height="10" fill="#002B55"/>
<rect x="83.3236" y="25" width="10.1176" height="15" fill="white"/>
<rect x="85.853" y="25" width="7.58824" height="10" fill="#002B55"/>
<rect x="89.6471" y="26.25" width="2.52941" height="2.5" fill="white"/>
<rect x="99.7648" y="25" width="10.1176" height="15" fill="white"/>
<rect x="102.294" y="25" width="7.58824" height="10" fill="#002B55"/>
<rect x="106.088" y="26.25" width="2.52941" height="2.5" fill="white"/>
<path d="M87.6084 49.5625L96.603 56.8563L105.598 49.5625H87.6084Z" fill="white" stroke="#002B55"/>
<rect x="84.5883" y="71.25" width="27.8235" height="38.75" fill="#80C565"/>
<path d="M95.9706 75L101.447 70.3125H90.4943L95.9706 75Z" fill="white"/>
<rect width="26.9488" height="7.09311" transform="matrix(0.801801 -0.597591 0.60657 0.79503 68.1471 102.354)" fill="#80C565"/>
<rect x="10" y="55" width="39" height="12" fill="#C4C4C4"/>
<path d="M15 32C15 26.4772 19.4772 22 25 22H35C40.5228 22 45 26.4772 45 32V58H15V32Z" fill="#C4C4C4"/>
<circle cx="30.5" cy="40.5" r="8" fill="#002B55" stroke="white"/>
<rect x="26" y="63" width="8" height="17" fill="#C4C4C4"/>
<path d="M7 76H52L41.5 117H18L7 76Z" fill="#C4C4C4"/>
<rect y="84" width="7" height="31" fill="#C4C4C4"/>
<rect x="52" y="84" width="7" height="31" fill="#C4C4C4"/>
</svg>
