<svg width="199" height="137" viewBox="0 0 199 137" fill="none" xmlns="http://www.w3.org/2000/svg">
<rect width="31.6497" height="8.40845" transform="matrix(-0.791942 -0.610597 -0.593552 0.804795 80.6588 106.325)" fill="#80C565"/>
<rect width="55" height="56" transform="matrix(-1 0 0 1 55 0)" fill="#002B55"/>
<path d="M55 23H10V62C10 73.0457 18.9543 82 30 82H45C50.5228 82 55 77.5228 55 72V23Z" fill="#F3F3F3"/>
<rect width="10.2694" height="1.5" transform="matrix(-1 0 0 1 54.2518 25.5)" fill="#002B55"/>
<rect width="10.2694" height="1.5" transform="matrix(-1 0 0 1 32.246 25.5)" fill="#002B55"/>
<rect width="11.7365" height="18" transform="matrix(-1 0 0 1 52.7847 30)" fill="white"/>
<rect width="8.80235" height="12" transform="matrix(-1 0 0 1 49.8506 30)" fill="#002B55"/>
<rect width="2.93412" height="3" transform="matrix(-1 0 0 1 45.4494 31.5)" fill="white"/>
<rect width="11.7365" height="18" transform="matrix(-1 0 0 1 33.713 30)" fill="white"/>
<rect width="8.80235" height="12" transform="matrix(-1 0 0 1 30.7789 30)" fill="#002B55"/>
<rect width="2.93412" height="3" transform="matrix(-1 0 0 1 26.3777 31.5)" fill="white"/>
<path d="M48.0764 59.375L37.3806 68.3474L26.6848 59.375H48.0764Z" fill="white" stroke="#002B55"/>
<rect width="32.2753" height="46.5" transform="matrix(-1 0 0 1 51.3177 85.5)" fill="#80C565"/>
<rect width="25" height="19" transform="matrix(-1 0 0 1 105 98)" fill="#002B55"/>
<path d="M81.21 100.9H81.708V102.496C81.708 102.618 81.728 102.704 81.768 102.754C81.81 102.804 81.871 102.829 81.951 102.829C82.007 102.829 82.064 102.818 82.122 102.796C82.18 102.774 82.233 102.743 82.281 102.703L82.389 102.862C82.357 102.89 82.322 102.915 82.284 102.937C82.246 102.959 82.207 102.978 82.167 102.994C82.127 103.008 82.087 103.019 82.047 103.027C82.007 103.035 81.97 103.039 81.936 103.039C81.862 103.039 81.796 103.029 81.738 103.009C81.68 102.991 81.631 102.961 81.591 102.919C81.553 102.877 81.524 102.822 81.504 102.754C81.484 102.684 81.474 102.598 81.474 102.496V101.101H81.21V100.9ZM84.3858 102.811C84.3498 102.843 84.3068 102.873 84.2568 102.901C84.2088 102.929 84.1558 102.953 84.0978 102.973C84.0398 102.993 83.9788 103.008 83.9148 103.018C83.8528 103.03 83.7898 103.036 83.7258 103.036C83.6058 103.036 83.4998 103.018 83.4078 102.982C83.3158 102.944 83.2388 102.891 83.1768 102.823C83.1148 102.753 83.0678 102.67 83.0358 102.574C83.0038 102.478 82.9878 102.37 82.9878 102.25C82.9878 102.124 83.0048 102.012 83.0388 101.914C83.0748 101.816 83.1258 101.734 83.1918 101.668C83.2578 101.602 83.3378 101.552 83.4318 101.518C83.5258 101.482 83.6308 101.464 83.7468 101.464C83.8308 101.464 83.9138 101.475 83.9958 101.497C84.0778 101.519 84.1498 101.561 84.2118 101.623C84.2758 101.683 84.3248 101.767 84.3588 101.875C84.3928 101.981 84.4048 102.119 84.3948 102.289H83.2338C83.2338 102.469 83.2818 102.604 83.3778 102.694C83.4758 102.782 83.6058 102.826 83.7678 102.826C83.8218 102.826 83.8748 102.82 83.9268 102.808C83.9808 102.794 84.0318 102.778 84.0798 102.76C84.1278 102.742 84.1698 102.722 84.2058 102.7C84.2438 102.678 84.2728 102.658 84.2928 102.64L84.3858 102.811ZM83.7528 101.662C83.6868 101.662 83.6238 101.669 83.5638 101.683C83.5058 101.697 83.4538 101.721 83.4078 101.755C83.3638 101.787 83.3268 101.83 83.2968 101.884C83.2688 101.936 83.2508 102.001 83.2428 102.079H84.1758C84.1658 101.947 84.1228 101.845 84.0468 101.773C83.9728 101.699 83.8748 101.662 83.7528 101.662ZM85.6447 100.9H86.1307V102.487C86.1307 102.505 86.1317 102.528 86.1337 102.556C86.1357 102.582 86.1377 102.61 86.1397 102.64C86.1437 102.67 86.1477 102.7 86.1517 102.73C86.1557 102.758 86.1597 102.783 86.1637 102.805H86.3647V103H85.9657L85.9357 102.769H85.9237C85.8797 102.845 85.8137 102.909 85.7257 102.961C85.6397 103.011 85.5397 103.036 85.4257 103.036C85.1997 103.036 85.0327 102.973 84.9247 102.847C84.8187 102.719 84.7657 102.521 84.7657 102.253C84.7657 102.127 84.7837 102.016 84.8197 101.92C84.8557 101.822 84.9067 101.741 84.9727 101.677C85.0407 101.611 85.1217 101.561 85.2157 101.527C85.3097 101.493 85.4147 101.476 85.5307 101.476C85.5727 101.476 85.6097 101.477 85.6417 101.479C85.6757 101.481 85.7067 101.484 85.7347 101.488C85.7627 101.492 85.7887 101.498 85.8127 101.506C85.8387 101.512 85.8667 101.519 85.8967 101.527V101.101H85.6447V100.9ZM85.4647 102.835C85.5867 102.835 85.6827 102.804 85.7527 102.742C85.8227 102.678 85.8707 102.583 85.8967 102.457V101.761C85.8527 101.731 85.8027 101.709 85.7467 101.695C85.6927 101.681 85.6207 101.674 85.5307 101.674C85.3707 101.674 85.2447 101.721 85.1527 101.815C85.0607 101.907 85.0147 102.053 85.0147 102.253C85.0147 102.335 85.0217 102.412 85.0357 102.484C85.0517 102.554 85.0767 102.615 85.1107 102.667C85.1467 102.719 85.1937 102.76 85.2517 102.79C85.3097 102.82 85.3807 102.835 85.4647 102.835ZM87.0955 102.835C87.0955 102.771 87.1135 102.722 87.1495 102.688C87.1855 102.652 87.2335 102.634 87.2935 102.634C87.3575 102.634 87.4075 102.652 87.4435 102.688C87.4795 102.722 87.4975 102.771 87.4975 102.835C87.4975 102.893 87.4795 102.941 87.4435 102.979C87.4075 103.017 87.3575 103.036 87.2935 103.036C87.2335 103.036 87.1855 103.017 87.1495 102.979C87.1135 102.941 87.0955 102.893 87.0955 102.835ZM88.2883 101.5H88.6453V101.203L88.8793 101.137V101.5H89.6803V101.701H88.8793V102.409C88.8793 102.555 88.9143 102.663 88.9843 102.733C89.0563 102.803 89.1583 102.838 89.2903 102.838C89.3803 102.838 89.4583 102.821 89.5243 102.787C89.5923 102.753 89.6533 102.716 89.7073 102.676L89.7853 102.853C89.7153 102.909 89.6313 102.954 89.5333 102.988C89.4373 103.022 89.3383 103.039 89.2363 103.039C89.1563 103.039 89.0803 103.027 89.0083 103.003C88.9383 102.981 88.8763 102.946 88.8223 102.898C88.7683 102.85 88.7253 102.789 88.6933 102.715C88.6613 102.639 88.6453 102.549 88.6453 102.445V101.701H88.2883V101.5ZM91.0831 101.5H91.5091V102.523C91.5091 102.621 91.5151 102.715 91.5271 102.805H91.7281V103H91.3291L91.3201 102.745H91.3081C91.2561 102.831 91.1871 102.901 91.1011 102.955C91.0151 103.009 90.9111 103.036 90.7891 103.036C90.6971 103.036 90.6181 103.025 90.5521 103.003C90.4881 102.983 90.4351 102.947 90.3931 102.895C90.3511 102.843 90.3201 102.774 90.3001 102.688C90.2801 102.6 90.2701 102.491 90.2701 102.361V101.701H90.0691V101.5H90.5041V102.313C90.5041 102.395 90.5071 102.469 90.5131 102.535C90.5211 102.599 90.5361 102.654 90.5581 102.7C90.5801 102.744 90.6121 102.778 90.6541 102.802C90.6981 102.824 90.7561 102.835 90.8281 102.835C90.9321 102.835 91.0221 102.801 91.0981 102.733C91.1761 102.665 91.2351 102.58 91.2751 102.478V101.701H91.0831V101.5ZM91.991 103V102.799H92.396V101.701H91.991V101.5H92.552L92.6 101.695H92.615C92.683 101.633 92.759 101.58 92.843 101.536C92.927 101.492 93.027 101.47 93.143 101.47C93.211 101.47 93.265 101.483 93.305 101.509C93.347 101.535 93.379 101.573 93.401 101.623C93.425 101.673 93.441 101.734 93.449 101.806C93.457 101.876 93.461 101.956 93.461 102.046L93.251 102.049C93.251 101.921 93.238 101.827 93.212 101.767C93.188 101.707 93.143 101.677 93.077 101.677C93.015 101.677 92.959 101.686 92.909 101.704C92.859 101.722 92.815 101.744 92.777 101.77C92.741 101.796 92.71 101.822 92.684 101.848C92.658 101.874 92.639 101.896 92.627 101.914V102.799H93.203V103H91.991ZM93.8708 102.025C93.8708 102.007 93.8698 101.984 93.8678 101.956C93.8678 101.926 93.8668 101.896 93.8648 101.866C93.8628 101.834 93.8598 101.803 93.8558 101.773C93.8538 101.743 93.8508 101.717 93.8468 101.695H93.6458V101.5H94.0478L94.0748 101.743H94.0898C94.1098 101.709 94.1358 101.676 94.1678 101.644C94.2018 101.61 94.2408 101.58 94.2848 101.554C94.3288 101.526 94.3778 101.504 94.4318 101.488C94.4858 101.472 94.5428 101.464 94.6028 101.464C94.6948 101.464 94.7758 101.474 94.8458 101.494C94.9178 101.514 94.9768 101.55 95.0228 101.602C95.0708 101.652 95.1068 101.721 95.1308 101.809C95.1548 101.895 95.1668 102.005 95.1668 102.139V103H94.9328V102.184C94.9328 102.018 94.9058 101.893 94.8518 101.809C94.7978 101.725 94.6998 101.683 94.5578 101.683C94.5058 101.683 94.4548 101.694 94.4048 101.716C94.3568 101.736 94.3128 101.763 94.2728 101.797C94.2328 101.831 94.1978 101.871 94.1678 101.917C94.1378 101.961 94.1158 102.008 94.1018 102.058V103H93.8708V102.025ZM95.5586 103.405H97.0226V103.615H95.5586V103.405ZM97.3605 102.25C97.3605 102.008 97.4235 101.817 97.5495 101.677C97.6755 101.535 97.8555 101.464 98.0895 101.464C98.2155 101.464 98.3235 101.485 98.4135 101.527C98.5055 101.567 98.5815 101.622 98.6415 101.692C98.7015 101.762 98.7455 101.845 98.7735 101.941C98.8035 102.037 98.8185 102.14 98.8185 102.25C98.8185 102.37 98.8025 102.479 98.7705 102.577C98.7385 102.673 98.6915 102.755 98.6295 102.823C98.5675 102.891 98.4905 102.944 98.3985 102.982C98.3085 103.018 98.2055 103.036 98.0895 103.036C97.9655 103.036 97.8575 103.016 97.7655 102.976C97.6735 102.934 97.5975 102.878 97.5375 102.808C97.4775 102.738 97.4325 102.655 97.4025 102.559C97.3745 102.463 97.3605 102.36 97.3605 102.25ZM97.6095 102.25C97.6095 102.32 97.6175 102.39 97.6335 102.46C97.6515 102.53 97.6795 102.593 97.7175 102.649C97.7555 102.705 97.8045 102.75 97.8645 102.784C97.9265 102.818 98.0015 102.835 98.0895 102.835C98.2495 102.835 98.3695 102.786 98.4495 102.688C98.5315 102.588 98.5725 102.442 98.5725 102.25C98.5725 102.178 98.5635 102.108 98.5455 102.04C98.5295 101.97 98.5015 101.907 98.4615 101.851C98.4235 101.795 98.3735 101.75 98.3115 101.716C98.2515 101.682 98.1775 101.665 98.0895 101.665C97.9295 101.665 97.8095 101.714 97.7295 101.812C97.6495 101.91 97.6095 102.056 97.6095 102.25ZM99.2673 102.025C99.2673 102.007 99.2663 101.984 99.2643 101.956C99.2643 101.926 99.2633 101.896 99.2613 101.866C99.2593 101.834 99.2563 101.803 99.2523 101.773C99.2503 101.743 99.2473 101.717 99.2433 101.695H99.0423V101.5H99.4443L99.4713 101.743H99.4863C99.5063 101.709 99.5323 101.676 99.5643 101.644C99.5983 101.61 99.6373 101.58 99.6813 101.554C99.7253 101.526 99.7743 101.504 99.8283 101.488C99.8823 101.472 99.9393 101.464 99.9993 101.464C100.091 101.464 100.172 101.474 100.242 101.494C100.314 101.514 100.373 101.55 100.419 101.602C100.467 101.652 100.503 101.721 100.527 101.809C100.551 101.895 100.563 102.005 100.563 102.139V103H100.329V102.184C100.329 102.018 100.302 101.893 100.248 101.809C100.194 101.725 100.096 101.683 99.9543 101.683C99.9023 101.683 99.8513 101.694 99.8013 101.716C99.7533 101.736 99.7093 101.763 99.6693 101.797C99.6293 101.831 99.5943 101.871 99.5643 101.917C99.5343 101.961 99.5123 102.008 99.4983 102.058V103H99.2673V102.025ZM102.275 103.66C102.099 103.64 101.939 103.596 101.795 103.528C101.653 103.462 101.532 103.371 101.432 103.255C101.332 103.141 101.254 103.002 101.198 102.838C101.144 102.674 101.117 102.485 101.117 102.271C101.117 102.061 101.144 101.874 101.198 101.71C101.252 101.544 101.328 101.403 101.426 101.287C101.526 101.169 101.645 101.075 101.783 101.005C101.923 100.935 102.077 100.888 102.245 100.864L102.278 101.059C102.128 101.091 101.996 101.136 101.882 101.194C101.768 101.252 101.672 101.329 101.594 101.425C101.516 101.521 101.457 101.638 101.417 101.776C101.377 101.914 101.357 102.079 101.357 102.271C101.357 102.465 101.381 102.633 101.429 102.775C101.479 102.915 101.547 103.033 101.633 103.129C101.719 103.225 101.82 103.299 101.936 103.351C102.054 103.405 102.181 103.441 102.317 103.459L102.275 103.66ZM102.958 100.864C103.134 100.884 103.293 100.928 103.435 100.996C103.579 101.062 103.701 101.153 103.801 101.269C103.901 101.385 103.978 101.525 104.032 101.689C104.088 101.853 104.116 102.041 104.116 102.253C104.116 102.463 104.088 102.651 104.032 102.817C103.978 102.981 103.901 103.121 103.801 103.237C103.703 103.355 103.585 103.449 103.447 103.519C103.309 103.589 103.156 103.636 102.988 103.66L102.955 103.465C103.105 103.433 103.237 103.388 103.351 103.33C103.465 103.272 103.561 103.195 103.639 103.099C103.717 103.003 103.776 102.886 103.816 102.748C103.856 102.61 103.876 102.445 103.876 102.253C103.876 102.059 103.851 101.892 103.801 101.752C103.753 101.61 103.686 101.491 103.6 101.395C103.514 101.299 103.412 101.225 103.294 101.173C103.178 101.119 103.052 101.083 102.916 101.065L102.958 100.864Z" fill="#80C565"/>
<rect x="110" y="123" width="22" height="14" fill="#80C565"/>
<rect x="115" y="128" width="4" height="2" fill="#002B55"/>
<rect x="120" y="133" width="4" height="2" fill="#002B55"/>
<rect x="126" y="126" width="3" height="2" fill="#F3F3F3"/>
<rect x="116" y="131" width="3" height="2" fill="#F3F3F3"/>
<rect width="31.6497" height="8.40845" transform="matrix(-0.791942 -0.610597 -0.593552 0.804795 70.3893 122.825)" fill="#80C565"/>
<rect width="31.4682" height="8.29792" transform="matrix(0.799879 -0.600161 0.604004 0.796982 112 104.909)" fill="#002B55"/>
<rect x="127" y="1" width="72" height="67" fill="#002B55"/>
<path d="M138 30H183V63C183 72.9411 174.941 81 165 81V81C150.088 81 138 68.9117 138 54V30Z" fill="#F3F3F3"/>
<rect x="142" y="30.3182" width="9.7781" height="13.6818" fill="white"/>
<rect x="144.445" y="30.3182" width="7.33357" height="9.12121" fill="#002B55"/>
<rect x="148.111" y="31.4583" width="2.44452" height="2.2803" fill="white"/>
<rect x="161" y="30.3182" width="9.93048" height="13.6818" fill="white"/>
<rect x="163.483" y="30.3182" width="7.44786" height="9.12121" fill="#002B55"/>
<rect x="167.207" y="31.4583" width="2.48262" height="2.2803" fill="white"/>
<path d="M144.295 58.75L155 67.3584L165.705 58.75H144.295Z" fill="white" stroke="#002B55"/>
<rect x="141" y="85" width="33" height="45" fill="#002B55"/>
<rect width="31.4682" height="8.29792" transform="matrix(0.799879 -0.600161 0.604004 0.796982 122.313 121.034)" fill="#002B55"/>
<path d="M80 117.5H104L98 129.5H71.5L80 117.5Z" fill="#002B55"/>
</svg>
